<svg width="20" height="70" viewBox="0 0 20 70" fill="none" xmlns="http://www.w3.org/2000/svg">
<path d="M19.8372 44.5273C19.0787 30.2586 16.111 14.0574 11.4111 1.80194C11.7245 1.06282 11.245 -0.22288 10.6159 0.0332133C3.22778 3.03979 1.14916 23.9781 0.389332 33.9729C-0.448886 44.9972 -0.682241 65.8611 7.76561 69.5007C11.2466 71.0009 15.3789 69.0696 17.6002 64.3922C20.1916 58.9358 20.1853 51.0735 19.8372 44.5273ZM16.8406 34.6196C14.5593 34.0469 11.3791 35.1434 10.0267 35.4485C9.47931 35.5719 8.94625 35.7218 8.41274 35.8717C8.47568 25.4926 9.31389 15.0384 10.1589 4.76215C12.1544 11.0594 15.1717 22.9489 16.8406 34.6196ZM15.6045 38.3788C15.5332 38.5866 15.4698 38.7758 15.4184 38.9426C15.2539 38.7362 15.0928 38.5175 14.9272 38.3085C15.1521 38.3302 15.3782 38.3537 15.6045 38.3788ZM2.38206 35.0436C2.90126 26.3495 4.33662 11.2493 8.9826 4.50382C7.02032 14.3434 6.06077 25.5132 6.15325 36.5981C6.02691 36.6445 5.90353 36.7043 5.77765 36.7525C5.55316 36.6359 5.30231 36.643 5.061 36.8478C4.9458 36.9462 4.84173 37.0744 4.73016 37.1828C3.88672 37.5458 3.0485 37.9365 2.21778 38.3885C2.26663 37.1286 2.32548 35.9917 2.38206 35.0436ZM8.91058 66.3629C4.22505 65.8664 2.642 57.4871 2.23096 49.125C2.3423 49.2248 2.4625 49.2902 2.58747 49.3168C2.61314 49.3788 2.66041 49.411 2.71199 49.3564C2.72312 49.3448 2.73516 49.3358 2.74652 49.3239C2.96488 49.3059 3.18779 49.1635 3.38751 48.8334C3.43841 48.7489 3.48976 48.6625 3.54089 48.5769C4.48681 47.7686 5.49567 47.1817 6.53225 46.7383C7.00306 53.6117 7.89581 60.2817 9.24323 66.383C9.13189 66.3752 9.02441 66.3748 8.91058 66.3629ZM11.3019 66.2503C11.2939 66.2051 11.2905 66.1625 11.28 66.1157C9.78061 59.5358 8.97851 52.8112 8.6236 46.0182C9.19687 45.8601 9.77061 45.7229 10.3389 45.6025C12.9726 45.0443 15.417 46.093 17.9633 45.9251C18.4616 56.4676 16.9651 65.0069 11.3019 66.2503Z" fill="white"/>
</svg>
